<?xml version="1.0" standalone="no"?>
<!DOCTYPE svg PUBLIC "-//W3C//DTD SVG 1.1//EN" "http://www.w3.org/Graphics/SVG/1.1/DTD/svg11.dtd" >
<svg xmlns="http://www.w3.org/2000/svg">
<metadata>Generated by IcoMoon</metadata>
<defs>
<font id="icomoon" horiz-adv-x="1024">
<font-face units-per-em="1024" ascent="960" descent="-64" />
<missing-glyph horiz-adv-x="1024" />
<glyph unicode="&#x20;" horiz-adv-x="512" d="" />
<glyph unicode="&#xe900;" glyph-name="stats" d="M994-64h-239.997c-16.575 0-30 13.425-30 30v600c0 16.568 13.425 30 30 30h239.997c16.568 0 30-13.432 30-30 0-10.53 0-588.101 0-600 0-16.575-13.432-30-30-30zM964.001 536h-179.998v-60.006h179.998v60.006zM964.001 415.995h-179.998v-59.999h179.998v59.999zM964.001 295.996h-179.998v-59.999h179.998v59.999zM964.001 176.004h-179.998v-60.006h179.998v60.006zM964.001 55.999h-179.998v-59.999h179.998v59.999zM872.003 779.995c-16.575 0-30 13.432-30 30v47.295l-308.732-310.449c-11.702-11.765-30.741-11.794-42.485-0.049l-98.784 98.777-218.79-218.783c-5.854-5.854-13.531-8.792-21.214-8.792-7.676 0-15.353 2.938-21.207 8.792-11.716 11.723-11.716 30.713 0 42.422l239.997 240.004c11.723 11.716 30.713 11.716 42.422 0l98.735-98.728 287.913 289.517h-47.86c-16.568 0-30 13.432-30 30s13.432 30 30 30h120.006c0.282 0 0.558-0.042 0.847-0.042 16.652-0.473 29.124-14.138 29.152-29.915 0-0.014 0-0.028 0-0.042v-120.006c0-16.568-13.432-30-30-30zM299.997 205.997c0-10.522 0-229.454 0-239.997 0-16.575-13.425-30-29.993-30h-240.004c-16.568 0-30 13.425-30 30v239.997c0 16.575 13.432 30 30 30h240.004c16.568 0 29.993-13.425 29.993-30zM239.997 176.004h-179.998v-60.006h179.998v60.006zM239.997 55.999h-179.998v-59.999h179.998v59.999zM392.001 355.995h239.997c16.575 0 30-13.425 30-29.993 0-18.559 0-348.104 0-360.003 0-16.575-13.425-30-30-30h-239.997c-16.568 0-30 13.425-30 30v360.003c0 16.568 13.432 29.993 30 29.993zM422.001-4.001h179.998v59.999h-179.998v-59.999zM422.001 115.998h179.998v60.006h-179.998v-60.006zM422.001 235.997h179.998v59.999h-179.998v-59.999z" />
<glyph unicode="&#xe901;" glyph-name="alarm-bell" d="M817.272 440.079v127.219c0 168.625-137.187 305.82-305.812 305.82s-305.82-137.195-305.82-305.82v-127.219c0-76.055-36.578-148.359-97.844-193.429l-12.234-8.992v-183.992h293.554c2.531-65.312 56.422-117.664 122.344-117.664 65.914 0 119.812 52.351 122.344 117.664h293.554v183.992l-12.234 8.992c-61.273 45.070-97.851 117.375-97.851 193.429zM265.671 440.079v127.219c0 135.523 110.258 245.781 245.789 245.781 135.523 0 245.781-110.258 245.781-245.781v-127.219c0-68.664 23.875-134.875 65.984-187.586h-623.53c42.101 52.711 65.976 118.922 65.976 187.586zM511.46-3.967c-32.812 0-59.789 25.437-62.25 57.633h124.5c-2.461-32.195-29.445-57.633-62.25-57.633zM155.601 113.697v78.758h711.717v-78.758zM361.781 905.125l-24.352 54.875c-155.164-68.859-255.429-223-255.429-392.702h60.031c0 145.984 86.258 278.593 219.75 337.827zM880.881 567.298h60.031c0 169.703-100.258 323.843-255.429 392.702l-24.352-54.875c133.492-59.234 219.75-191.843 219.75-337.827z" />
<glyph unicode="&#xe902;" glyph-name="angle-left" d="M794.703 817.27l-357.14-357.455 357.14-357.297c32.847-32.926 32.847-86.174 0-119.099s-86.174-32.926-119.099 0l-416.689 416.847c-32.926 32.926-32.926 86.252 0 119.178l416.689 416.926c32.926 32.768 86.252 32.768 119.099 0 32.847-32.926 32.847-86.252 0-119.099z" />
<glyph unicode="&#xe903;" glyph-name="angle-right" d="M790.764 406.174l-413.617-413.696c-32.61-32.689-85.543-32.689-118.233 0-32.532 32.61-32.532 85.543 0 118.233l354.54 354.54-354.54 354.462c-32.532 32.689-32.532 85.543 0 118.154 32.689 32.768 85.622 32.768 118.233 0l413.617-413.46c32.689-32.689 32.689-85.701 0-118.233z" />
<glyph unicode="&#xe904;" glyph-name="arrow" horiz-adv-x="1026" d="M1025.467 778.473h-3.316v-520.99h-183.313v381.864l-703.219-703.219-135.301 135.237 707.172 707.108h-388.878v177.383h520.225v0.701h46.737l2.933 2.997 2.997-2.997h130.646v-0.701h3.316v-177.383z" />
<glyph unicode="&#xe905;" glyph-name="back" d="M511.539-64c-282.214 0-511.539 230.195-511.539 512.461 0 282.214 228.403 511.539 511.539 511.539s512.461-228.454 512.461-511.539c0-283.136-230.195-512.461-512.461-512.461zM511.539 888.576c-242.534 0-440.115-197.581-440.115-440.115 0-242.586 197.581-440.115 440.115-440.115 242.586 0 440.115 197.53 440.115 440.115 0 242.534-197.53 440.115-440.115 440.115zM611.226 192.666c-7.066-7.066-16.742-10.598-25.6-10.598-9.677 0-18.534 3.533-25.549 10.598l-232.858 232.858c-7.066 7.066-10.598 15.872-10.598 25.549 0 9.728 3.533 18.534 10.598 25.6l232.858 232.858c14.131 14.080 37.018 14.080 51.149 0 14.131-14.131 14.131-37.069 0-51.149l-207.258-207.309 207.258-207.258c14.131-14.080 14.131-37.018 0-51.149z" />
<glyph unicode="&#xe906;" glyph-name="burger" d="M983.985 408.576h-943.97c-22.095 0-40.015 17.684-40.015 39.424s17.92 39.385 40.015 39.385h943.97c22.095 0 39.975-17.644 39.975-39.385s-17.881-39.424-39.975-39.424zM983.985 723.732h-943.97c-22.095 0-40.015 17.644-40.015 39.385s17.92 39.424 40.015 39.424h943.97c22.095 0 39.975-17.684 39.975-39.424s-17.881-39.385-39.975-39.385zM40.015 172.308h943.97c22.095 0 39.975-17.684 39.975-39.424s-17.881-39.385-39.975-39.385h-943.97c-22.095 0-40.015 17.644-40.015 39.385s17.92 39.424 40.015 39.424z" />
<glyph unicode="&#xe907;" glyph-name="calendar" d="M904 880h-48v80h-80v-80h-528v80h-80v-80h-48c-66.168 0-120-53.832-120-120v-704c0-66.168 53.832-120 120-120h784c66.168 0 120 53.832 120 120v704c0 66.168-53.832 120-120 120zM944 56c0-22.056-17.944-40-40-40h-784c-22.056 0-40 17.944-40 40v528h864v-528zM944 664h-864v96c0 22.056 17.944 40 40 40h48v-80h80v80h528v-80h80v80h48c22.056 0 40-17.944 40-40v-96zM152 500h80v-80h-80v80zM312 500h80v-80h-80v80zM472 500h80v-80h-80v80zM632 500h80v-80h-80v80zM792 500h80v-80h-80v80zM152 340h80v-80h-80v80zM312 340h80v-80h-80v80zM472 340h80v-80h-80v80zM632 340h80v-80h-80v80zM152 180h80v-80h-80v80zM312 180h80v-80h-80v80zM472 180h80v-80h-80v80zM632 180h80v-80h-80v80zM792 340h80v-80h-80v80z" />
<glyph unicode="&#xe908;" glyph-name="card" d="M805.936 238.005c-27.88 136.752-149.074 239.998-293.936 239.998-144.869 0-266.056-103.247-293.936-239.998h-218.064v421.997h1024v-421.997h-218.064zM361.998 599.996h-241.999v-59.993h241.999v59.993zM0 780.001h1024v-60.006h-1024v60.006zM0 959.993h1024v-119.992h-1024v119.992zM512 417.997c132.547 0 239.998-107.452 239.998-239.998s-107.452-241.999-239.998-241.999c-132.547 0-239.998 109.452-239.998 241.999s107.452 239.998 239.998 239.998zM482.004 45.582l171.213 171.206-42.428 42.421-128.785-128.785-68.792 68.785-42.421-42.421 111.213-111.206z" />
<glyph unicode="&#xe909;" glyph-name="close" d="M874.018 85.982c-96.768-96.768-225.178-149.982-362.018-149.982s-265.284 53.214-362.018 149.982c-96.734 96.768-149.982 225.178-149.982 362.018s53.248 265.25 149.982 362.018c96.734 96.768 225.178 149.982 362.018 149.982s265.25-53.214 362.018-149.982c96.768-96.768 149.982-225.178 149.982-362.018s-53.214-265.25-149.982-362.018zM832.853 768.853c-85.743 85.777-199.748 132.949-320.853 132.949s-235.11-47.172-320.853-132.949c-176.947-176.913-176.947-464.794 0-641.707 85.743-85.777 199.748-132.983 320.853-132.983s235.11 47.206 320.853 132.983c176.913 176.913 176.913 464.794 0 641.707zM553.165 448l184.013-184.457c11.401-11.435 11.401-29.73 0-41.165-5.598-5.803-12.902-8.602-20.446-8.602-7.339 0-14.882 3.004-20.48 8.602l-184.457 184.457-184.457-184.457c-5.598-5.803-13.141-8.602-20.48-8.602s-14.882 3.004-20.48 8.602c-11.401 11.435-11.401 29.73 0 41.165l184.457 184.457-184.457 184.457c-11.401 11.435-11.401 29.73 0 41.165 11.435 11.401 29.73 11.401 41.165 0l184.457-184.457 184.457 184.457c11.401 11.401 29.73 11.401 41.165 0 11.435-11.435 11.435-29.73 0-41.165l-184.457-184.457z" />
<glyph unicode="&#xe90a;" glyph-name="delete" d="M952.064 755.797h-52.992v-667.819c0-83.797-70.315-151.979-156.672-151.979h-460.885c-86.357 0-156.672 68.181-156.672 151.979v667.819h-52.907c-16.213 0-29.269 12.629-29.269 28.416s13.056 28.416 29.269 28.416h219.648v34.731c0 62.123 51.968 112.64 116.053 112.64h208.725c64 0 116.139-50.517 116.139-112.64v-34.731h219.563c16.213 0 29.269-12.629 29.269-28.416s-13.056-28.416-29.269-28.416zM673.877 847.36c0 30.72-25.856 55.808-57.515 55.808h-208.725c-31.659 0-57.515-25.088-57.515-55.808v-34.731h323.755v34.731zM840.704 755.797h-657.237v-667.819c0-52.395 44.032-95.147 98.048-95.147h460.885c54.101 0 98.048 42.752 98.048 95.147h0.256v667.819zM703.147 126.123c-16.299 0-29.269 12.629-29.269 28.331v439.893c0 15.787 12.971 28.416 29.269 28.416s29.355-12.629 29.355-28.416v-439.893c0-15.701-13.056-28.331-29.355-28.331zM512 94.72c-16.299 0-29.269 12.8-29.269 28.672v502.101c0 15.787 12.971 28.416 29.269 28.416s29.269-12.629 29.269-28.416v-502.357c0-15.787-12.971-28.416-29.269-28.416zM320.853 126.123c-16.043 0-29.269 12.629-29.269 28.331v439.893c0 15.787 12.971 28.416 29.269 28.416s29.269-12.629 29.269-28.416v-439.893c0-15.701-12.971-28.331-29.269-28.331z" />
<glyph unicode="&#xe90b;" glyph-name="earnings" d="M977.388 866.925h-344.556c-25.702 0-46.551 20.808-46.551 46.51 0 25.716 20.849 46.565 46.551 46.565h344.556c25.723 0 46.572-20.849 46.572-46.531 0-25.716-20.849-46.544-46.572-46.544zM837.755 448c0-179.685-146.118-325.83-325.782-325.83-179.651 0-325.789 146.173-325.789 325.83s146.138 325.803 325.789 325.803c179.664 0 325.782-146.125 325.782-325.803zM511.973 680.735c-128.321 0-232.721-104.407-232.721-232.735 0-128.341 104.4-232.721 232.721-232.721 128.341 0 232.721 104.38 232.721 232.721 0 128.328-104.38 232.735-232.721 232.735zM630.873 385.871c0-56.702-42.298-85.531-105.315-89.341v-26.194c0-7.188-5.536-14.384-12.78-14.384-7.148 0-12.616 7.195-12.616 14.384v26.194c-71.53 1.748-107.097 44.489-107.097 77.954 0 16.876 10.22 26.665 26.208 26.665 47.404 0 10.547-58.409 80.889-61.365v88.474c-62.744 11.401-100.734 38.912-100.734 85.914 0 57.508 47.834 87.211 100.734 88.849v22.542c0 7.216 5.468 14.404 12.616 14.404 7.243 0 12.78-7.188 12.78-14.404v-22.542c32.973-0.874 100.721-21.593 100.721-63.072 0-16.527-12.363-26.214-26.74-26.214-27.518 0-27.15 45.274-73.981 46.135v-80.432c55.869-11.878 105.315-28.337 105.315-93.566zM525.558 339.804c25.361 1.679 52.081 13.599 52.081 41.513 0 28.768-29.314 37.233-52.081 42.284v-83.797zM500.163 559.889c-28.87-0.853-47.493-17.811-47.493-35.99 0-21.217 15.756-33.43 47.493-39.813v75.803zM193.57 639.986h-147.012c-25.709 0-46.558 20.849-46.558 46.565 0 25.682 20.849 46.51 46.558 46.51h226.393c-31.369-26.337-58.061-57.863-79.38-93.075zM46.558 615.745h133.468c-14.773-29.068-26.126-60.204-32.843-93.088h-100.625c-25.709 0-46.558 20.815-46.558 46.544s20.849 46.565 46.558 46.544zM46.558 498.415h96.877c-2.239-16.514-3.802-33.287-3.802-50.415 0-14.445 1.017-28.638 2.628-42.66h-95.703c-25.709 0-46.558 20.828-46.558 46.51 0 25.709 20.849 46.537 46.558 46.565zM46.558 381.044h99.41c5.994-32.707 16.343-63.85 30.297-93.047h-129.707c-25.709 0-46.558 20.808-46.558 46.531s20.849 46.517 46.558 46.517zM46.558 263.721h142.288c20.036-34.993 45.616-66.321 75.523-93.041h-217.812c-25.709 0-46.558 20.808-46.558 46.531 0 25.682 20.849 46.51 46.558 46.51zM46.558 146.405h247.863c41.288-29.853 88.692-51.685 140.213-62.621-6.56-17.743-23.463-30.467-43.527-30.467h-344.549c-25.709 0-46.558 20.828-46.558 46.551s20.849 46.558 46.558 46.537zM46.558 29.061h344.549c25.723 0 46.551-20.801 46.551-46.51 0-25.702-20.828-46.551-46.551-46.551h-344.549c-25.709 0-46.558 20.828-46.558 46.51 0 25.75 20.849 46.551 46.558 46.551zM830.389 256h146.999c25.723 0 46.572-20.849 46.572-46.558 0-25.696-20.849-46.531-46.572-46.531h-226.413c31.382 26.337 58.081 57.849 79.415 93.088zM589.305 812.189c6.588 17.736 23.484 30.467 43.527 30.467h344.556c25.723 0 46.612-20.828 46.612-46.544 0-25.709-20.849-46.537-46.592-46.537h-247.856c-41.322 29.853-88.719 51.678-140.247 62.614zM759.59 725.327h217.798c25.723 0 46.572-20.849 46.572-46.537 0-25.709-20.849-46.537-46.572-46.537h-142.275c-20.036 35.014-45.629 66.342-75.523 93.075zM977.388 280.235h-133.482c14.787 29.061 26.126 60.191 32.87 93.082h100.611c25.723 0 46.572-20.828 46.572-46.551 0-25.702-20.849-46.531-46.572-46.531zM847.667 607.956h129.72c25.723 0 46.572-20.828 46.572-46.531 0-25.716-20.849-46.544-46.572-46.544h-99.424c-5.98 32.727-16.295 63.884-30.297 93.075zM977.388 490.66c25.723 0 46.531-20.815 46.531-46.51 0-25.723-20.849-46.578-46.551-46.578h-96.891c2.273 16.514 3.83 33.3 3.83 50.429 0 14.445-1.024 28.631-2.621 42.66h95.703z" />
<glyph unicode="&#xe90c;" glyph-name="edit" d="M1004.117 678.571l-570.027-571.136c-0.171-0.171-0.341-0.256-0.427-0.427l-262.997 263.509c0.085 0.171 0.256 0.341 0.341 0.512l570.027 571.221c26.453 26.453 69.291 26.453 95.744 0l167.339-167.765c26.453-26.539 26.453-69.376 0-95.915zM93.781-58.795c-25.344-10.496-54.613-4.864-73.984 14.677-19.456 19.371-25.173 48.64-14.592 74.069l103.851 248.064 232.277-232.704-247.552-104.107z" />
<glyph unicode="&#xe90d;" glyph-name="graph" d="M383.936 128c-19.968 0-39.040 9.344-51.2 25.664l-137.728 183.616-77.824-116.736c-19.584-29.376-59.328-37.248-88.704-17.728-29.376 19.584-37.376 59.264-17.792 88.704l128.064 192c11.456 17.344 30.656 27.904 51.456 28.544 20.928-0.32 40.512-8.96 52.992-25.664l129.856-173.12 145.664 291.392c9.92 19.776 29.376 33.088 51.52 35.136 22.208 2.176 43.584-7.616 56.896-25.344l129.92-173.12 145.664 291.328c15.808 31.552 54.144 44.288 85.888 28.608 31.616-15.808 44.416-54.272 28.608-85.888l-192-384c-9.984-19.776-29.376-33.088-51.52-35.072-22.272-1.984-43.648 7.488-56.96 25.408l-129.856 172.992-145.664-291.328c-9.92-19.776-29.376-33.088-51.52-35.072-1.92-0.256-3.904-0.32-5.76-0.32z" />
<glyph unicode="&#xe90e;" glyph-name="logout" d="M494.656-5.324h-267.083c-72.584 0-131.477 59.11-131.477 131.477v643.694c0 72.584 59.11 131.477 131.477 131.477h271.43c16.299 0 29.338 13.039 29.338 29.338s-13.039 29.338-29.338 29.338h-271.43c-104.964 0-190.153-85.406-190.153-190.153v-643.694c0-104.964 85.406-190.153 190.153-190.153h267.083c16.299 0 29.338 13.039 29.338 29.338s-13.256 29.338-29.338 29.338zM977.97 468.645l-186.458 186.458c-11.518 11.518-29.99 11.518-41.508 0s-11.518-29.99 0-41.508l136.475-136.475h-595.233c-16.299 0-29.338-13.039-29.338-29.338s13.039-29.338 29.338-29.338h595.233l-136.475-136.475c-11.518-11.518-11.518-29.99 0-41.508 5.65-5.65 13.256-8.693 20.645-8.693s14.995 2.825 20.645 8.693l186.458 186.458c11.735 11.735 11.735 30.424 0.217 41.725z" />
<glyph unicode="&#xe90f;" glyph-name="mail" d="M866.418-49.692h-708.779c-116.11 0-157.497 81.55-157.497 157.668v351.829c-0.626 40.306 12.999 79.559 38.457 110.791 0.484 0.74 0.996 1.394 1.564 2.048l51.996 41.671v156.302c0 21.874 17.721 39.652 39.595 39.652h204.772l164.466 131.982c6.201 4.949 14.99 4.949 21.163 0l164.494-131.982h204.743c21.874 0 39.623-17.778 39.623-39.652v-156.53l51.968-41.671c1.365-0.455 1.365-1.82 1.365-1.82v0.455c27.221-30.464 41.444-70.4 39.595-111.246v-351.829c0-116.224-81.465-157.668-157.525-157.668zM157.184-15.445l709.234-0.228c31.516-0.626 62.236 9.813 86.869 29.497l-353.024 263.964-78.763-54.955h-2.93c-2.133-0.967-4.437-1.508-6.741-1.564-2.361 0.057-4.636 0.597-6.77 1.564h-2.93l-80.327 57.003-353.052-264.647c24.235-21.618 56.064-32.626 88.434-30.635zM92.388 570.823l-13.056-10.126 13.056-9.671v19.797zM54.585 536.149c-13.909-22.955-21.134-49.294-20.935-76.146v-351.573c-0.057-22.784 5.12-45.284 15.076-65.764l343.381 257.65-337.522 235.833zM511.829 907.093l-120.86-97.052h241.664l-120.804 97.052zM897.252 770.617c0 3.1-2.503 5.632-5.632 5.632h-759.637c-3.1 0-5.632-2.532-5.632-5.632v-243.257l385.479-268.914 385.422 268.914v243.257zM931.243 571.278v-19.797l13.056 9.216-13.056 10.581zM989.724 459.804c1.081 26.965-6.144 53.618-20.679 76.345l-339.57-236.942 344.974-258.588c10.724 20.878 15.986 44.117 15.275 67.584v351.602zM218.709 559.445c0 9.415 7.623 17.010 17.010 17.010h552.192c9.387 0 16.981-7.595 16.981-17.010 0-9.387-7.595-16.981-16.981-16.981h-552.192c-9.387 0-17.010 7.595-17.010 16.981zM607.004 666.795h-371.285c-9.387 0-17.010 7.595-17.010 16.981 0 9.415 7.623 17.010 17.010 17.010h371.285c9.358 0 16.981-7.595 16.981-17.010 0-9.387-7.623-16.981-16.981-16.981z" />
<glyph unicode="&#xe910;" glyph-name="money" d="M683.907 303.285c-24.262 0-44 17.084-44 38.082 0 21 19.738 38.084 44 38.084s44-17.084 44-38.084c0-11.044 8.956-20 20-20s20 8.956 20 20c0 36.65-27.308 67.466-64 75.83v10.402c0 11.044-8.956 20-20 20s-20-8.956-20-20v-10.402c-36.692-8.364-64-39.18-64-75.83 0-43.054 37.682-78.082 84-78.082 24.262 0 44-17.084 44-38.084s-19.738-38.084-44-38.084c-24.262 0-44 17.084-44 38.084 0 11.044-8.956 20-20 20s-20-8.956-20-20c0-36.65 27.308-67.466 64-75.83v-8.64c0-11.044 8.956-20 20-20s20 8.956 20 20v8.64c36.692 8.364 64 39.18 64 75.83 0 43.056-37.682 78.084-84 78.084zM902.962 422.249c-26.126 40.71-62.934 73.286-106.444 94.202-9.958 4.788-21.908 0.596-26.692-9.36-4.786-9.956-0.596-21.904 9.36-26.69 75.822-36.448 124.812-114.326 124.812-198.402 0-35.976-8.868-71.654-25.642-103.182-5.188-9.75-1.49-21.862 8.262-27.050 2.992-1.592 6.208-2.348 9.376-2.348 7.156 0 14.078 3.852 17.674 10.61 19.842 37.288 30.33 79.466 30.33 121.97 0 49.92-14.19 98.418-41.036 140.25zM715.345 541.997l-1.346 0.002c-11.044 0-20-8.954-20-20s8.956-20 20-20l1.158-0.002c0.032 0 0.062 0 0.096 0 11.002 0 19.946 8.892 19.998 19.906 0.050 11.046-8.862 20.042-19.906 20.094zM588.813 83.598c-75.82 36.45-124.81 114.328-124.81 198.402 0 35.976 8.868 71.654 25.642 103.182 5.188 9.75 1.49 21.862-8.262 27.050-9.748 5.188-21.864 1.49-27.050-8.262-19.842-37.29-30.33-79.466-30.33-121.97 0-49.92 14.19-98.416 41.036-140.25 26.126-40.71 62.934-73.286 106.444-94.204 2.794-1.344 5.746-1.978 8.652-1.978 7.448 0 14.596 4.178 18.040 11.338 4.782 9.956 0.594 21.906-9.362 26.692zM654.003 62l-1.158 0.004c-11.096 0.020-20.040-8.858-20.090-19.906-0.052-11.046 8.864-20.042 19.908-20.094l1.34-0.004c11.044 0 20 8.956 20 20s-8.956 20-20 20zM774.816 609.665c-2.434 5.8-5.416 11.266-8.886 16.336h52.068c50.728 0 92 41.272 92 92s-41.272 92-92 92h-160.16c10.182 14.804 16.16 32.714 16.16 52 0 50.728-41.272 92-92 92h-489.999c-50.728 0-92-41.272-92-92s41.272-92 92-92h160.16c-10.182-14.804-16.16-32.714-16.16-52s5.976-37.196 16.16-52h-52.16c-50.728 0-92-41.272-92-92 0-29.134 13.628-55.132 34.83-72-21.202-16.868-34.83-42.866-34.83-72s13.628-55.132 34.83-72c-21.202-16.868-34.83-42.866-34.83-72s13.628-55.132 34.83-72c-21.202-16.868-34.83-42.866-34.83-72 0-50.728 41.272-92 92-92h235.7c62.092-66.414 150.424-108.002 248.302-108.002 187.476 0 339.999 152.524 339.999 339.999 0 156.034-105.66 287.835-249.184 327.665zM817.998 770c28.674 0 52-23.328 52-52s-23.326-52-52-52h-489.999c-28.674 0-52 23.328-52 52s23.326 52 52 52h489.999zM92 810c-28.674 0-52 23.328-52 52s23.326 52 52 52h489.999c28.674 0 52-23.328 52-52s-23.326-52-52-52h-489.999zM200 626.001h489.999c8.056 0 15.77-1.872 22.69-5.224-9.46 0.794-19.024 1.222-28.688 1.222-93.89 0-179.010-38.258-240.598-99.998h-243.404c-28.672 0-52 23.328-52 52s23.328 52 52 52zM200 482.001h209.23c-22.704-31.106-40.258-66.19-51.406-104h-157.824c-28.674 0-52 23.326-52 52 0 28.672 23.326 52 52 52zM200 338.001h148.64c-3.034-18.226-4.638-36.928-4.638-56.002 0-16.292 1.178-32.312 3.404-47.998h-147.406c-28.674 0-52 23.326-52 52s23.326 52 52 52zM200 90.002c-28.674 0-52 23.326-52 52s23.326 52 52 52h155.572c10.092-37.626 26.486-72.692 47.986-104h-203.558zM684.001-18c-165.42 0-299.999 134.58-299.999 299.999s134.58 299.999 299.999 299.999 299.999-134.58 299.999-299.999-134.58-299.999-299.999-299.999z" />
<glyph unicode="&#xe911;" glyph-name="news-report" d="M891.871 728.774v231.226h-891.871v-941.419c0-45.535 37.046-82.581 82.581-82.581h858.839c45.535 0 82.581 37.046 82.581 82.581v710.194h-132.129zM82.581-30.968c-27.318 0-49.548 22.231-49.548 49.548v908.387h825.806v-908.387c0-18.663 6.458-35.708 16.946-49.548h-793.204zM990.968 18.581c0-27.318-22.231-49.548-49.548-49.548s-49.548 22.231-49.548 49.548v677.161h99.097v-677.161zM297.29 695.742c-18.217 0-33.032 14.815-33.032 33.032s14.815 33.032 33.032 33.032c18.217 0 33.032-14.815 33.032-33.032h33.032c0 30.687-21.124 56.337-49.548 63.719v35.378h-33.032v-35.378c-28.424-7.383-49.548-33.032-49.548-63.719 0-36.435 29.63-66.065 66.065-66.065 18.217 0 33.032-14.815 33.032-33.032s-14.815-33.032-33.032-33.032c-18.217 0-33.032 14.815-33.032 33.032h-33.032c0-30.687 21.124-56.337 49.548-63.719v-35.378h33.032v35.378c28.424 7.383 49.548 33.032 49.548 63.719 0 36.435-29.63 66.065-66.065 66.065zM66.065 893.935v-429.419h462.452v429.419h-462.452zM495.484 497.548h-396.387v363.355h396.387v-363.355zM792.774 35.097v264.258h-99.097v-264.258h-66.065v198.194h-99.097v-198.194h-66.065v264.258h-99.097v-264.258h-33.032v-33.032h495.484v33.032h-33.032zM429.419 35.097h-33.032v231.226h33.032v-231.226zM594.581 35.097h-33.032v165.161h33.032v-165.161zM759.742 35.097h-33.032v231.226h33.032v-231.226zM561.548 893.935h264.258v-33.032h-264.258v33.032zM561.548 827.871h264.258v-33.032h-264.258v33.032zM561.548 761.806h264.258v-33.032h-264.258v33.032zM561.548 695.742h264.258v-33.032h-264.258v33.032zM561.548 629.677h198.194v-33.032h-198.194v33.032zM792.774 629.677h33.032v-33.032h-33.032v33.032zM66.065 431.484h264.258v-33.032h-264.258v33.032zM66.065 365.419h264.258v-33.032h-264.258v33.032zM66.065 299.355h264.258v-33.032h-264.258v33.032zM66.065 233.29h264.258v-33.032h-264.258v33.032zM297.29 167.226h33.032v-33.032h-33.032v33.032zM66.065 167.226h198.194v-33.032h-198.194v33.032zM743.226 431.484c-27.318 0-49.548-22.231-49.548-49.548 0-0.677 0.165-1.288 0.198-1.949l-78.782-31.513c-9.084 10.306-22.231 16.946-37.029 16.946s-27.945-6.639-37.029-16.962l-78.782 31.529c0.033 0.661 0.198 1.272 0.198 1.949 0 27.318-22.231 49.548-49.548 49.548s-49.548-22.231-49.548-49.548 22.231-49.548 49.548-49.548c14.798 0 27.945 6.639 37.029 16.962l78.782-31.513c-0.033-0.677-0.198-1.288-0.198-1.965 0-27.318 22.231-49.548 49.548-49.548s49.548 22.231 49.548 49.548c0 0.677-0.165 1.288-0.198 1.949l78.782 31.513c9.084-10.306 22.231-16.946 37.029-16.946 27.318 0 49.548 22.231 49.548 49.548s-22.231 49.548-49.548 49.548zM412.903 365.419c-9.117 0-16.516 7.416-16.516 16.516s7.399 16.516 16.516 16.516 16.516-7.416 16.516-16.516c0-9.1-7.399-16.516-16.516-16.516zM578.065 299.355c-9.117 0-16.516 7.416-16.516 16.516s7.399 16.516 16.516 16.516c9.117 0 16.516-7.416 16.516-16.516s-7.399-16.516-16.516-16.516zM743.226 365.419c-9.117 0-16.516 7.416-16.516 16.516s7.399 16.516 16.516 16.516c9.117 0 16.516-7.416 16.516-16.516s-7.399-16.516-16.516-16.516zM396.387 695.742h33.032v-33.032h-33.032v33.032zM165.161 695.742h33.032v-33.032h-33.032v33.032z" />
<glyph unicode="&#xe912;" glyph-name="ok" d="M874.035 85.965c-96.666-96.717-225.28-149.965-362.035-149.965s-265.318 53.248-362.035 149.965c-96.717 96.666-149.965 225.28-149.965 362.035s53.248 265.318 149.965 362.035c96.717 96.717 225.28 149.965 362.035 149.965s265.37-53.248 362.035-149.965c96.717-96.717 149.965-225.28 149.965-362.035s-53.248-265.37-149.965-362.035zM512 899.994c-249.242 0-451.994-202.752-451.994-451.994s202.752-451.994 451.994-451.994c249.242 0 451.994 202.752 451.994 451.994s-202.752 451.994-451.994 451.994zM470.477 283.699c-5.837-5.837-13.517-8.755-21.197-8.755s-15.36 2.918-21.197 8.755l-160.666 160.717c-11.725 11.674-11.725 30.669 0 42.394s30.669 11.725 42.394 0l139.469-139.418 264.909 264.858c11.725 11.725 30.72 11.725 42.445 0 11.674-11.674 11.674-30.669 0-42.394l-286.157-286.157z" />
<glyph unicode="&#xe913;" glyph-name="reload" d="M822.528 97.229c-84.838-77.824-192.717-120.013-306.125-120.013-7.578 0-15.411 0.205-23.245 0.563-97.792 5.069-189.389 40.806-264.090 102.298l9.83-113.152c1.485-15.667-9.83-29.235-25.088-30.72-0.819-0.205-1.638-0.205-2.509-0.205-14.182 0-26.317 11.059-27.546 25.702l-16.486 185.907c-1.434 15.718 9.882 29.286 25.139 30.771l182.989 16.691c15.411 1.485 28.826-9.83 30.259-25.498 1.434-15.718-9.882-29.286-25.139-30.72l-120.986-11.11c73.677-62.31 165.069-93.901 256.666-93.901 95.949 0 192.256 34.714 269.056 105.216 109.312 100.352 155.648 253.235 120.832 398.746-3.686 15.053 5.581 30.31 20.378 34.099 14.848 3.789 29.85-5.683 33.587-20.685 39.475-165.837-13.21-339.61-137.523-453.99zM827.443 716.8l-183.603-6.861c-0.41 0-0.614 0-1.024 0-14.848 0-27.187 11.878-27.802 27.187-0.614 15.667 11.315 28.621 26.778 29.235l119.603 4.608c-150.886 124.826-373.658 122.778-522.496-14.029-109.261-100.301-155.392-253.184-120.832-398.746 3.738-15.053-5.581-30.31-20.378-34.099-2.253-0.614-4.301-0.819-6.605-0.819-12.544 0-23.859 8.602-26.931 21.504-39.526 165.632 13.158 339.61 137.523 454.042 90.368 83.2 207.462 125.645 329.37 119.347 98.355-5.018 190.413-40.96 265.114-103.066l-4.301 115.61c-0.666 15.718 11.315 28.672 26.726 29.286 15.258 0.666 28.211-11.469 28.826-27.187l6.81-184.422v-0.205c0-0.41 0-0.614 0-1.024v-2.099c0-15.258-11.725-27.597-26.778-28.262z" />
<glyph unicode="&#xe914;" glyph-name="search" d="M675.84 844.032c-74.803 74.854-174.182 115.968-279.962 115.968-105.728 0-205.158-41.114-279.91-115.968-74.803-74.752-115.968-174.182-115.968-280.013 0-105.677 41.165-205.107 115.968-279.859 74.752-74.803 174.182-116.019 279.91-116.019s205.21 41.216 279.962 116.019c154.368 154.368 154.368 405.606 0 559.872zM620.646 339.354c-60.058-60.058-139.827-93.133-224.717-93.133-84.941 0-164.71 33.075-224.768 93.133-60.006 60.006-93.082 139.827-93.082 224.666 0 84.941 33.075 164.762 93.082 224.819 60.058 60.006 139.878 93.082 224.768 93.082s164.659-33.075 224.717-93.082c123.904-123.904 123.904-325.632 0-449.485zM1012.531 2.611l-218.266 218.419c-15.258 15.206-39.987 15.206-55.245 0-15.258-15.36-15.258-40.038 0-55.347l218.317-218.266c7.629-7.629 17.613-11.366 27.597-11.366s20.019 3.738 27.597 11.366c15.258 15.309 15.258 39.936 0 55.194z" />
<glyph unicode="&#xe915;" glyph-name="settings" d="M971.585 555.492l-71.874 12.193c-7.487 24.172-17.113 47.488-28.878 69.735l42.354 59.253c17.969 25.242 15.188 59.681-6.845 81.5l-63.746 63.746c-11.979 11.979-27.808 18.61-44.707 18.61-13.263 0-25.883-4.064-36.579-11.765l-59.467-42.354c-23.102 12.193-47.274 22.247-72.302 29.734l-11.979 71.019c-5.134 30.589-31.445 52.836-62.462 52.836h-90.057c-31.017 0-57.328-22.247-62.462-52.836l-12.407-72.73c-23.958-7.487-47.274-17.327-69.521-29.306l-58.826 42.354c-10.696 7.701-23.53 11.765-36.793 11.765-16.899 0-32.942-6.631-44.707-18.61l-63.959-63.746c-21.819-21.819-24.814-56.259-6.845-81.5l42.782-60.109c-11.765-22.461-21.177-45.777-28.45-69.949l-71.019-11.979c-30.589-5.134-52.836-31.445-52.836-62.462v-90.057c0-31.017 22.247-57.328 52.836-62.462l72.73-12.407c7.487-23.958 17.327-47.274 29.306-69.521l-42.141-58.612c-17.969-25.242-15.188-59.681 6.845-81.5l63.746-63.746c11.979-11.979 27.808-18.61 44.707-18.61 13.263 0 25.883 4.064 36.579 11.765l60.109 42.782c21.605-11.337 44.28-20.535 67.596-27.808l11.979-71.874c5.134-30.589 31.445-52.836 62.462-52.836h90.271c31.017 0 57.328 22.247 62.462 52.836l12.193 71.874c24.172 7.487 47.488 17.113 69.735 28.878l59.253-42.354c10.696-7.701 23.53-11.765 36.793-11.765v0c16.899 0 32.728 6.631 44.707 18.61l63.746 63.746c21.819 21.819 24.814 56.259 6.845 81.5l-42.354 59.467c11.765 22.461 21.605 45.777 28.878 69.735l71.874 11.979c30.589 5.134 52.836 31.445 52.836 62.462v90.057c0.428 31.017-21.819 57.328-52.408 62.462zM966.665 402.973c0-2.781-1.925-5.134-4.706-5.562l-89.843-14.974c-11.337-1.925-20.322-10.268-23.102-21.177-8.129-31.445-20.535-61.606-37.221-89.629-5.776-9.84-5.348-22.033 1.283-31.445l52.836-74.441c1.497-2.139 1.283-5.348-0.642-7.273l-63.746-63.746c-1.497-1.497-2.995-1.711-4.064-1.711-1.283 0-2.353 0.428-3.209 1.070l-74.227 52.836c-9.198 6.631-21.605 7.059-31.445 1.283-28.022-16.685-58.184-29.092-89.629-37.221-11.123-2.781-19.466-11.979-21.177-23.102l-15.188-89.843c-0.428-2.781-2.781-4.706-5.562-4.706h-90.057c-2.781 0-5.134 1.925-5.562 4.706l-14.974 89.843c-1.925 11.337-10.268 20.322-21.177 23.102-30.589 7.915-60.109 20.108-87.704 35.937-4.492 2.567-9.626 3.85-14.546 3.85-5.776 0-11.765-1.711-16.685-5.348l-74.869-53.264c-1.070-0.642-2.139-1.070-3.209-1.070-0.856 0-2.567 0.214-4.064 1.711l-63.746 63.746c-1.925 1.925-2.139 4.92-0.642 7.273l52.622 73.799c6.631 9.412 7.059 21.819 1.283 31.659-16.685 27.808-29.52 57.97-37.648 89.415-2.995 10.909-11.979 19.252-23.102 21.177l-90.484 15.402c-2.781 0.428-4.706 2.781-4.706 5.562v90.057c0 2.781 1.925 5.134 4.706 5.562l89.201 14.974c11.337 1.925 20.535 10.268 23.316 21.391 7.915 31.445 20.108 61.82 36.579 89.843 5.776 9.84 5.134 22.033-1.497 31.231l-53.264 74.869c-1.497 2.139-1.283 5.348 0.642 7.273l63.746 63.746c1.497 1.497 2.995 1.711 4.064 1.711 1.283 0 2.353-0.428 3.209-1.070l73.799-52.622c9.412-6.631 21.819-7.059 31.659-1.283 27.808 16.685 57.97 29.52 89.415 37.648 10.909 2.995 19.252 11.979 21.177 23.102l15.402 90.484c0.428 2.781 2.781 4.706 5.562 4.706h90.057c2.781 0 5.134-1.925 5.562-4.706l14.974-89.201c1.925-11.337 10.268-20.535 21.391-23.316 32.301-8.129 63.104-20.749 91.768-37.648 9.84-5.776 22.033-5.348 31.445 1.283l73.799 53.050c1.070 0.642 2.139 1.070 3.209 1.070 0.856 0 2.567-0.214 4.064-1.711l63.746-63.746c1.925-1.925 2.139-4.92 0.642-7.273l-52.836-74.227c-6.631-9.198-7.059-21.605-1.283-31.445 16.685-28.022 29.092-58.184 37.221-89.629 2.781-11.123 11.979-19.466 23.102-21.177l89.843-15.188c2.781-0.428 4.706-2.781 4.706-5.562v-90.057h-0.214zM512.104 669.078c-121.929 0-220.97-99.041-220.97-220.97s99.041-220.97 220.97-220.97 220.97 99.041 220.97 220.97-99.041 220.97-220.97 220.97zM512.104 284.894c-90.057 0-163.214 73.158-163.214 163.214s73.158 163.214 163.214 163.214 163.214-73.158 163.214-163.214-73.158-163.214-163.214-163.214z" />
<glyph unicode="&#xe916;" glyph-name="shopping-cart" d="M544.787 498.936c4.857-4.857 11.402-7.39 17.948-7.39s12.88 2.534 17.948 7.39l156.043 156.043c9.924 9.924 9.924 25.972 0 35.896s-25.972 9.924-35.896 0l-138.094-138.306-55.745 55.745c-9.924 9.924-25.972 9.924-35.896 0s-9.924-25.972 0-35.896l73.693-73.481zM306.183 287.782h567.792c62.713 0 113.601 51.099 113.601 113.601v239.237c0 13.936-11.402 25.338-25.338 25.338s-25.338-11.402-25.338-25.338v-239.026c0-34.84-28.295-62.924-62.924-62.924h-567.792c-34.84 0-62.924 28.295-62.924 62.924v467.072c0 0.845 0 1.9-0.211 2.745 0 0.211 0 0.422 0 0.633 0 0.633-0.211 1.267-0.211 1.689s-0.211 1.056-0.422 1.478c0 0.211-0.211 0.633-0.211 0.845-0.211 0.633-0.422 1.056-0.633 1.689 0 0.211-0.211 0.422-0.211 0.633-0.211 0.422-0.422 1.056-0.633 1.478-0.211 0.211-0.211 0.633-0.422 0.845-0.211 0.422-0.422 0.845-0.633 1.267s-0.422 0.633-0.633 1.056c-0.211 0.211-0.422 0.633-0.633 0.845-0.211 0.422-0.633 0.845-0.845 1.056s-0.422 0.422-0.633 0.633-0.633 0.845-1.056 1.267c-0.211 0.211-0.422 0.422-0.633 0.422-0.422 0.422-0.845 0.845-1.267 1.056-0.211 0.211-0.422 0.422-0.633 0.633-0.422 0.211-0.845 0.633-1.267 0.845-0.422 0.422-1.056 0.633-1.478 1.056-0.211 0-0.422 0.211-0.422 0.422-0.845 0.422-1.689 0.845-2.534 1.267l-156.043 65.458c-12.88 5.49-27.661-0.633-33.151-13.514-5.49-12.669 0.633-27.661 13.514-33.151l140.417-59.334v-628.393c0-59.545 45.82-108.322 104.099-113.178-11.825-17.737-18.793-39.063-18.793-62.079 0-61.868 50.466-112.334 112.334-112.334s112.334 50.466 112.334 112.334c0 22.805-6.757 43.92-18.37 61.657h268.799c-11.613-17.737-18.37-38.852-18.37-61.657 0-61.868 50.466-112.334 112.334-112.334s112.334 50.466 112.334 112.334-50.466 112.334-112.334 112.334h-540.553c-34.84 0-62.924 28.295-62.924 62.924v83.406c17.948-12.036 39.697-19.215 62.924-19.215zM451.668 48.334c0-33.996-27.661-61.657-61.657-61.657s-61.657 27.661-61.657 61.657 27.661 61.657 61.657 61.657 61.657-27.661 61.657-61.657zM908.182 48.334c0-33.996-27.661-61.657-61.657-61.657s-61.657 27.661-61.657 61.657 27.661 61.657 61.657 61.657 61.657-27.661 61.657-61.657z" />
<glyph unicode="&#xe917;" glyph-name="speedometer" d="M874.040 810.040c-96.704 96.702-225.278 149.96-362.040 149.96-136.76 0-265.334-53.256-362.038-149.96l-0.004-0.002-0.002-0.002c-96.7-96.706-149.956-225.278-149.956-362.036 0-0.002 0-0.004 0-0.004v-0.002c0.002-111.806 35.408-218.036 102.394-307.21 5.666-7.544 14.552-11.982 23.986-11.982h771.244c9.436 0 18.32 4.438 23.986 11.984 66.982 89.176 102.386 195.406 102.388 307.208v0.002h0.002c0 0 0 0.002 0 0.004 0 136.76-53.258 265.336-149.96 362.040zM882.342 188.8h-740.68c-47.738 67.988-75.304 146.452-80.672 229.198l33.278 0.002c16.568 0 30 13.434 29.998 30.002 0 16.568-13.434 29.998-30.002 29.998l-33.244-0.002c6.724 102.090 47.476 195.024 111.018 267.536l23.368-23.366c5.858-5.858 13.534-8.786 21.212-8.786s15.356 2.93 21.214 8.788c11.716 11.716 11.714 30.71-0.002 42.426l-23.366 23.364c72.512 63.542 165.446 104.296 267.536 111.020v-33.248c0-16.568 13.432-30 30-30s30 13.432 30 30v33.248c102.090-6.724 195.024-47.478 267.538-111.022l-23.368-23.362c-11.716-11.714-11.718-30.71-0.004-42.426 5.858-5.858 13.538-8.788 21.214-8.788s15.354 2.928 21.21 8.786l23.37 23.366c63.544-72.512 104.296-165.446 111.020-267.536l-33.246 0.002c-0.002 0-0.002 0-0.002 0-16.566 0-29.998-13.43-30-29.998s13.43-30.002 29.998-30.002l33.28-0.002c-5.37-82.744-32.932-161.206-80.668-229.198zM704.798-4h-385.598c-16.568 0-30-13.432-30-30s13.432-30 30-30h385.6c16.568 0 30 13.432 30 30s-13.432 30-30.002 30zM700.058 636.060c-11.712 11.718-30.708 11.718-42.424 0l-80.048-80.046c-19.132 11.66-41.59 18.386-65.588 18.386-69.698 0-126.4-56.702-126.4-126.4s56.704-126.4 126.4-126.4c69.698 0 126.398 56.704 126.398 126.4 0 23.998-6.724 46.454-18.384 65.588l80.046 80.046c11.716 11.716 11.716 30.71 0 42.426zM512 381.6c-36.614 0-66.4 29.788-66.4 66.4s29.788 66.4 66.4 66.4c36.612 0 66.398-29.786 66.398-66.4s-29.786-66.4-66.398-66.4z" />
<glyph unicode="&#xe918;" glyph-name="statistics" d="M976.798-24h-43.866v636.928c0 29.646-24.12 53.764-53.764 53.764h-98.048c-29.646 0-53.764-24.12-53.764-53.764v-636.928h-111.384v348.35c0 29.646-24.118 53.764-53.764 53.764h-98.048c-29.646 0-53.764-24.12-53.764-53.764v-348.35h-111.384v180.408c0 29.646-24.12 53.764-53.764 53.764h-98.050c-29.646 0-53.764-24.12-53.764-53.764v-180.408h-46.232c-11.046 0-20-8.954-20-20s8.954-20 20-20h929.596c11.046 0 20 8.954 20 20s-8.954 20-20 20zM259.008-24h-125.576v180.408c0 7.59 6.174 13.764 13.764 13.764h98.048c7.59 0 13.764-6.174 13.764-13.764v-180.408zM575.97-24h-125.576v348.35c0 7.59 6.174 13.764 13.764 13.764h98.048c7.588 0 13.764-6.174 13.764-13.764v-348.35zM892.932-24h-125.576v636.928c0 7.59 6.174 13.764 13.764 13.764h98.048c7.59 0 13.764-6.174 13.764-13.764v-636.928zM932.884 938.968c0.28 5.458-1.64 11.008-5.808 15.176s-9.718 6.090-15.176 5.808c-0.322 0.014-0.64 0.048-0.968 0.048h-121c-11.046 0-20-8.954-20-20s8.954-20 20-20h74.714l-197.714-197.716-74.56 74.56c-3.75 3.75-8.838 5.858-14.142 5.858s-10.392-2.108-14.142-5.858l-359.538-359.54c-7.81-7.81-7.81-20.474 0-28.286 3.906-3.902 9.024-5.854 14.142-5.854s10.238 1.952 14.142 5.858l345.396 345.398 74.56-74.56c7.81-7.81 20.474-7.81 28.286 0l211.856 211.854v-67.62c0-11.046 8.954-20 20-20s20 8.954 20 20v113.906c0 0.326-0.034 0.644-0.048 0.968zM171.28 353.38c0-11.046-8.954-20-20-20s-20 8.954-20 20c0 11.046 8.954 20 20 20s20-8.954 20-20z" />
<glyph unicode="&#xe919;" glyph-name="user" d="M874.095 810.074c-199.648 199.651-524.504 199.651-724.152 0-70.048-70.048-117.964-158.050-138.571-254.496-20.062-93.91-13.491-191.207 19.003-281.366 3.904-10.827 15.849-16.44 26.672-12.539 10.83 3.904 16.443 15.846 12.539 26.672-29.854 82.837-35.891 172.232-17.454 258.529 18.92 88.558 62.935 169.384 127.283 233.732 183.399 183.399 481.809 183.399 665.208 0 87.339-87.342 136.23-203.441 137.665-326.916 1.435-123.25-44.498-240.276-129.329-329.515-1.004-1.056-1.997-2.119-2.991-3.182-1.758-1.879-3.512-3.762-5.346-5.596-183.399-183.399-481.809-183.399-665.208 0-0.976 0.976-1.928 1.969-2.869 2.963-0.049 1.924-0.090 3.821-0.090 5.689 0 4.196 0.080 8.374 0.233 12.539 0.052 1.393 0.156 2.772 0.226 4.161 0.135 2.768 0.264 5.537 0.465 8.291 0.122 1.643 0.299 3.268 0.445 4.904 0.219 2.483 0.424 4.967 0.695 7.437 0.191 1.744 0.441 3.473 0.66 5.21 0.295 2.345 0.577 4.696 0.924 7.030 0.264 1.778 0.577 3.539 0.868 5.307 0.372 2.275 0.733 4.55 1.153 6.811 0.33 1.789 0.709 3.56 1.070 5.339 0.448 2.22 0.889 4.442 1.382 6.648 0.399 1.789 0.844 3.567 1.271 5.346 0.521 2.171 1.039 4.342 1.601 6.495 0.469 1.785 0.976 3.557 1.469 5.332 0.594 2.126 1.184 4.255 1.82 6.367 0.531 1.771 1.101 3.529 1.664 5.287 0.667 2.088 1.334 4.179 2.039 6.249 0.597 1.747 1.223 3.484 1.848 5.221 0.74 2.056 1.483 4.113 2.261 6.155 0.66 1.726 1.344 3.435 2.032 5.148 0.809 2.018 1.626 4.036 2.473 6.037 0.722 1.702 1.466 3.39 2.216 5.078 0.879 1.983 1.768 3.96 2.685 5.922 0.782 1.671 1.58 3.331 2.39 4.988 0.952 1.949 1.914 3.894 2.9 5.821 0.837 1.632 1.688 3.258 2.553 4.877 1.021 1.917 2.060 3.828 3.119 5.728 0.893 1.598 1.796 3.189 2.713 4.769 1.091 1.879 2.199 3.748 3.328 5.61 0.948 1.563 1.907 3.119 2.879 4.668 1.16 1.841 2.338 3.671 3.532 5.488 1 1.525 2.008 3.043 3.032 4.55 1.226 1.806 2.48 3.591 3.744 5.373 1.052 1.483 2.105 2.963 3.182 4.425 1.296 1.764 2.619 3.512 3.949 5.248 1.101 1.438 2.199 2.876 3.324 4.297 1.365 1.726 2.761 3.432 4.161 5.13 1.143 1.389 2.285 2.779 3.453 4.151 1.438 1.688 2.907 3.352 4.38 5.012 1.188 1.341 2.369 2.685 3.578 4.005 1.507 1.646 3.046 3.262 4.588 4.877 1.23 1.292 2.452 2.588 3.703 3.862 1.58 1.605 3.196 3.175 4.807 4.752 1.264 1.233 2.518 2.48 3.803 3.696 1.66 1.57 3.359 3.102 5.050 4.637 1.292 1.171 2.567 2.355 3.876 3.508 1.747 1.539 3.539 3.032 5.321 4.536 1.306 1.101 2.598 2.22 3.921 3.303 1.844 1.507 3.734 2.97 5.616 4.442 1.313 1.025 2.605 2.074 3.932 3.081 1.983 1.504 4.008 2.956 6.030 4.415 1.275 0.924 2.525 1.869 3.817 2.775 2.23 1.567 4.512 3.077 6.787 4.595 1.122 0.747 2.22 1.521 3.348 2.258 2.966 1.928 5.985 3.793 9.024 5.634 0.472 0.285 0.931 0.59 1.407 0.875 3.515 2.105 7.079 4.147 10.684 6.134 1.233 0.677 2.501 1.313 3.748 1.976 2.393 1.278 4.779 2.567 7.214 3.789 1.56 0.785 3.157 1.521 4.731 2.282 1.987 0.962 3.967 1.935 5.978 2.862 37.773-36.082 88.162-56.509 140.464-56.509s102.695 20.431 140.468 56.516c73.737-34.126 134.087-95.359 166.852-169.821 4.634-10.531 16.926-15.321 27.468-10.684 10.535 4.637 15.318 16.936 10.681 27.468-35.839 81.451-98.231 146.539-177.206 185.83 22.914 33.612 35.311 73.303 35.311 114.261 0 112.25-91.323 203.573-203.573 203.573-11.507 0-20.84-9.333-20.84-20.84s9.333-20.84 20.84-20.84c89.27 0 161.892-72.625 161.892-161.892 0-39.916-14.835-78.353-41.768-108.221-0.003-0.003-0.007-0.007-0.010-0.010-30.753-34.102-74.532-53.661-120.117-53.661s-89.367 19.559-120.117 53.661c-0.003 0.007-0.010 0.010-0.017 0.014-26.929 29.878-41.761 68.304-41.761 108.214 0 43.57 17.058 84.445 48.034 115.088 8.183 8.096 8.253 21.292 0.156 29.472-8.093 8.187-21.288 8.249-29.472 0.16-38.947-38.52-60.399-89.916-60.399-144.705 0-40.917 12.365-80.579 35.241-114.174-0.205-0.101-0.403-0.212-0.604-0.316-1.626-0.813-3.213-1.674-4.825-2.504-2.47-1.278-4.946-2.549-7.381-3.88-1.723-0.938-3.407-1.924-5.113-2.886-2.275-1.289-4.554-2.57-6.797-3.901-1.74-1.035-3.453-2.105-5.175-3.164-2.154-1.327-4.307-2.65-6.429-4.015-1.733-1.115-3.435-2.261-5.148-3.4-2.060-1.372-4.116-2.751-6.144-4.161-1.705-1.188-3.39-2.4-5.075-3.612-1.98-1.428-3.953-2.862-5.901-4.324-1.671-1.254-3.321-2.525-4.967-3.803-1.91-1.483-3.807-2.977-5.682-4.495-1.626-1.313-3.237-2.643-4.842-3.981-1.844-1.542-3.675-3.102-5.488-4.679-1.573-1.365-3.136-2.741-4.686-4.133-1.789-1.608-3.553-3.234-5.307-4.873-1.514-1.414-3.025-2.831-4.519-4.272-1.733-1.674-3.439-3.373-5.141-5.078-1.452-1.455-2.904-2.907-4.328-4.383-1.685-1.747-3.338-3.526-4.988-5.304-1.379-1.487-2.768-2.966-4.123-4.477-1.65-1.834-3.255-3.706-4.866-5.571-1.296-1.501-2.602-2.987-3.873-4.505-1.636-1.956-3.22-3.949-4.814-5.936-1.184-1.48-2.393-2.938-3.557-4.436-1.674-2.154-3.293-4.349-4.918-6.537-1.021-1.375-2.070-2.727-3.070-4.116-2.056-2.848-4.047-5.738-6.019-8.642-0.518-0.764-1.066-1.507-1.58-2.275-2.456-3.668-4.842-7.378-7.166-11.129-0.802-1.296-1.556-2.619-2.341-3.921-1.504-2.497-3.015-4.991-4.463-7.523-0.903-1.58-1.758-3.189-2.636-4.783-1.268-2.292-2.543-4.578-3.758-6.898-0.903-1.719-1.758-3.46-2.636-5.193-1.132-2.237-2.268-4.47-3.355-6.731-0.865-1.799-1.688-3.619-2.525-5.429-1.028-2.233-2.060-4.463-3.046-6.718-0.813-1.858-1.591-3.734-2.372-5.606-0.941-2.247-1.876-4.495-2.772-6.759-0.754-1.903-1.476-3.817-2.199-5.731-0.854-2.272-1.698-4.547-2.511-6.836-0.688-1.942-1.355-3.894-2.015-5.849-0.775-2.296-1.528-4.599-2.258-6.916-0.622-1.969-1.223-3.946-1.813-5.926-0.695-2.338-1.365-4.682-2.015-7.037-0.549-1.987-1.087-3.977-1.605-5.978-0.615-2.379-1.198-4.769-1.768-7.166-0.476-2.001-0.948-3.998-1.389-6.006-0.535-2.428-1.032-4.87-1.518-7.315-0.399-2.001-0.806-4.001-1.174-6.012-0.455-2.494-0.865-5.002-1.271-7.513-0.32-1.98-0.656-3.956-0.945-5.943-0.379-2.591-0.698-5.196-1.025-7.801-0.24-1.931-0.504-3.859-0.716-5.797-0.299-2.73-0.528-5.478-0.768-8.225-0.16-1.83-0.351-3.654-0.483-5.495-0.222-3.067-0.368-6.148-0.518-9.232-0.073-1.532-0.188-3.053-0.243-4.588-0.167-4.627-0.261-9.271-0.261-13.932 0-5.033 0.17-9.792 0.375-15.047 0.049-1.216 0.219-2.397 0.462-3.55 0.021-0.090 0.031-0.181 0.052-0.271 0.257-1.136 0.618-2.226 1.052-3.282 0.042-0.104 0.080-0.208 0.125-0.313 0.448-1.042 0.983-2.035 1.587-2.98 0.076-0.118 0.149-0.236 0.226-0.351 0.622-0.927 1.313-1.799 2.067-2.612 0.056-0.059 0.094-0.132 0.149-0.191l2.751-2.928c2.077-2.223 4.154-4.439 6.322-6.603 99.826-99.826 230.95-149.738 362.078-149.738s262.252 49.913 362.078 149.738c2.167 2.164 4.244 4.383 6.322 6.603l2.751 2.928c92.354 97.154 142.357 224.545 140.798 358.715-1.553 134.438-54.779 260.835-149.86 355.916z" />
<glyph unicode="&#xe91a;" glyph-name="smartlinks" d="M985.147 684.72c-59.626-71.914-167.029-82.622-239.85-23.757l-64.98-64.132c18.52-21.445 32.797-46.256 41.955-72.938 38.971-114.337-23.435-237.948-139.088-276.217l10.211-30.076c7.022 0.878 14.043 1.492 21.299 1.492 79.053 0 143.389-63.488 143.389-141.458 0-78-64.336-141.488-143.389-141.488-79.024 0-143.36 63.488-143.36 141.488 0 59.070 36.864 109.714 89.264 130.955l-10.445 30.691c-107.374-19.134-212.582 42.452-247.106 144.618l-65.185-25.659c1.287-6.934 1.902-14.073 1.902-21.445 0-64.922-53.453-117.701-119.281-117.701s-119.311 52.78-119.311 117.701c0 64.98 53.482 117.731 119.311 117.731 46.226 0 86.484-26.273 106.086-64.336l67.73 26.712c-11.703 64.336 6.612 130.311 50.059 179.727l-123.319 121.739c-49.415-37.859-118.462-37.859-167.877 0-59.626 45.817-70.51 130.516-24.079 189.381 46.46 58.836 132.301 69.573 191.956 23.757 59.655-45.846 70.51-130.545 24.079-189.411l123.319-121.71c82.885 70.422 205.356 70.422 288.007 0l64.98 64.102c-24.927 30.076-38.561 67.701-38.561 106.584 0 92.921 76.478 167.965 170.423 167.965 39.409 0 77.561-13.458 108.017-38.064 72.821-58.836 83.5-164.367 23.845-236.251zM120.481 420.879c-47.075 0-85.226-37.625-85.226-84.085 0-46.431 38.151-84.056 85.226-84.056s85.197 37.625 85.197 84.056c0 46.46-38.122 84.085-85.197 84.085zM137.509 925.389c-56.437 0-102.254-45.202-102.254-100.908 0-55.676 45.817-100.879 102.254-100.879 56.466 0 102.254 45.202 102.254 100.879 0 55.706-45.787 100.908-102.254 100.908zM512.234 77.634c0-55.91 45.787-101.113 102.459-101.113s102.459 45.202 102.459 101.113c0 55.881-45.787 101.113-102.459 101.113s-102.459-45.407-102.459-101.113zM512.439 639.517c-103.541 0-187.451-82.827-187.451-184.993s83.909-184.964 187.451-184.964c103.541 0.205 187.246 82.798 187.48 184.964 0 102.166-83.939 184.993-187.48 184.993zM853.285 925.389c-75.191 0-136.338-60.328-136.338-134.524s61.147-134.524 136.338-134.524c75.191 0 136.338 60.328 136.338 134.524s-61.147 134.524-136.338 134.524zM921.454 723.602h-136.338c-9.362 0-17.028 7.578-17.028 16.823s7.665 16.823 17.028 16.823h136.338c9.392 0 17.028-7.578 17.028-16.823s-7.636-16.823-17.028-16.823zM921.454 774.042h-136.338c-9.362 0-17.028 7.578-17.028 16.823s7.665 16.823 17.028 16.823h136.338c9.392 0 17.028-7.578 17.028-16.823s-7.636-16.823-17.028-16.823zM836.257 824.481h-51.141c-9.362 0-17.028 7.578-17.028 16.823s7.665 16.823 17.028 16.823h51.141c9.362 0 17.028-7.578 17.028-16.823s-7.665-16.823-17.028-16.823zM499.683 471.347h25.541c29.403 1.053 54.126-21.445 55.384-50.469-1.053-27.326-23.435-49.181-51.112-50.030v-17.232c0-9.245-7.665-16.823-17.057-16.823-9.362 0-17.028 7.578-17.028 16.823v16.823h-34.085c-9.392 0-17.057 7.578-17.057 16.794 0 9.275 7.665 16.823 17.057 16.823h63.898c2.575-0.614 5.12-0.614 7.665 0 9.392 2.136 15.36 11.381 13.224 20.626s-11.498 15.126-20.89 13.019h-25.541c-29.403-1.024-54.126 21.445-55.413 50.469 1.083 27.326 23.435 49.181 51.141 50.030v17.232c0 9.245 7.665 16.823 17.028 16.823 9.392 0 17.057-7.578 17.057-16.823v-16.823h34.085c9.362 0 17.028-7.578 17.028-16.823s-7.665-16.794-17.028-16.794h-63.898c-2.575 0.614-5.149 0.614-7.695 0-9.362-2.107-15.331-11.352-13.195-20.597 2.107-9.275 11.498-15.155 20.89-13.049zM580.608 118.184h-17.028c-9.392 0-17.057 7.578-17.057 16.823s7.665 16.823 17.057 16.823h17.028c9.362 0 17.028-7.578 17.028-16.823s-7.665-16.823-17.028-16.823zM563.58 101.361h51.112c9.362 0 17.057-7.548 17.057-16.794s-7.695-16.823-17.057-16.823h-51.112c-9.392 0-17.057 7.578-17.057 16.823s7.665 16.794 17.057 16.794zM563.58 50.922h102.254c9.362 0 17.028-7.548 17.028-16.823 0-9.245-7.665-16.823-17.028-16.823h-102.254c-9.392 0-17.057 7.578-17.057 16.823 0 9.275 7.665 16.823 17.057 16.823zM188.65 774.042c-9.392 0-17.028 7.578-17.028 16.823v67.262c0 9.245 7.636 16.823 17.028 16.823s17.028-7.578 17.028-16.823v-67.262c0-9.245-7.636-16.823-17.028-16.823zM137.509 774.042c-9.362 0-17.028 7.578-17.028 16.823v67.262c0 9.245 7.665 16.823 17.028 16.823 9.392 0 17.057-7.578 17.057-16.823v-67.262c0-9.245-7.665-16.823-17.057-16.823zM86.396 774.042c-9.362 0-17.028 7.578-17.028 16.823v33.616c0 9.275 7.665 16.823 17.028 16.823s17.057-7.548 17.057-16.823v-33.616c0-9.245-7.695-16.823-17.057-16.823zM137.509 320v-33.646c0-9.245-7.665-16.794-17.028-16.794s-17.028 7.548-17.028 16.794v33.646h-34.085c-9.362 0-17.057 7.578-17.057 16.794 0 9.275 7.695 16.823 17.057 16.823h34.085v33.616c0 9.275 7.665 16.823 17.028 16.823s17.028-7.548 17.028-16.823v-33.616h34.114c9.362 0 17.028-7.548 17.028-16.823 0-9.216-7.665-16.794-17.028-16.794h-34.114z" />
</font>
</defs>
</svg>
